{"title":"Deewana Main Deewana 2013 DVDScrRip x264 MP3 Hindi [TMB]","uid":8114836,"size":634676044,"categoryP":"video","categoryS":"movies","magnet":"?xt=urn:btih:d3097ed91fe2fdba73b637619e1c1f908653ac05&amp;dn=Deewana+Main+Deewana+2013+DVDScrRip+x264+MP3+Hindi+%5BTMB%5D&amp;tr=udp%3A%2F%2Ftracker.openbittorrent.com%3A80&amp;tr=udp%3A%2F%2Fopen.demonii.com%3A1337&amp;tr=udp%3A%2F%2Ftracker.coppersurfer.tk%3A6969&amp;tr=udp%3A%2F%2Fexodus.desync.com%3A6969","seeders":1,"leechers":0,"uploader":"SJonam","files":1,"time":1360269942,"description":" &lt;a href=&quot;http://i26.photobucket.com/albums/c119/manojb/good.gif&quot; rel=&quot;nofollow&quot; target=&quot;_NEW&quot;&gt;http://i26.photobucket.com/albums/c119/manojb/good.gif&lt;/a&gt; &lt;a href=&quot;\nhttp://i26.photobucket.com/albums/c119/manojb/vlcsnap-2013-02-08-00h54m45s74.png&quot; rel=&quot;nofollow&quot; target=&quot;_NEW&quot;&gt;\nhttp://i26.photobucket.com/albums/c119/manojb/vlcsnap-2013-02-08-00h54m45s74.png&lt;/a&gt; &lt;a href=&quot;\nhttp://i26.photobucket.com/albums/c119/manojb/vlcsnap-2013-02-08-00h54m54s166.png&quot; rel=&quot;nofollow&quot; target=&quot;_NEW&quot;&gt;\nhttp://i26.photobucket.com/albums/c119/manojb/vlcsnap-2013-02-08-00h54m54s166.png&lt;/a&gt; &lt;a href=&quot;\nhttp://i26.photobucket.com/albums/c119/manojb/vlcsnap-2013-02-08-00h55m10s77.png&quot; rel=&quot;nofollow&quot; target=&quot;_NEW&quot;&gt;\nhttp://i26.photobucket.com/albums/c119/manojb/vlcsnap-2013-02-08-00h55m10s77.png&lt;/a&gt; &lt;a href=&quot;\nhttp://i26.photobucket.com/albums/c119/manojb/vlcsnap-2013-02-08-00h55m19s166.png&quot; rel=&quot;nofollow&quot; target=&quot;_NEW&quot;&gt;\nhttp://i26.photobucket.com/albums/c119/manojb/vlcsnap-2013-02-08-00h55m19s166.png&lt;/a&gt;\n\nInfo - \nBanner\nSangeeta Pictures\n\nGenre\nComedy,Romance,Thriller\n\nProducer\nAmit Kumar Bokadia\n\nStar Cast\nGovinda.... Basant\nPriyanka Chopra.... Priya\nKader Khan.... Basant's Father\nHimani Shivpuri.... Basant's Mother\nPrem Chopra.... Priya's Father\nNazir Khan.... Vasant\nJohny Lever\nShakti Kapoor\nSnehal Dhabi\n\nStory / Writers\nK.C. Bokadia\n\nMusic Director\nBappi Lahiri\nAnand Raj Anand\n\nDirector\nK.C. Bokadia\n\nSingers\nUdit Narayan\nAnuradha Paudwal\nSunidhi Chauhan\nIla Arun\nSudesh Bhosle\nSukhwinder Singh\nShreya Ghoshal\nGovinda\nBappi Lahiri\nVinod Rathod\nSadhna Sargam\n\nMedia Info - \nGeneral\nComplete name                  : Deewana Main Deewana 2013 DVDScrRip x264 [TMB].avi\nFormat                         : AVI\nFormat/Info                    : Audio Video Interleave\nFile size                      : 605 MiB\nDuration                       : 1h 54mn\nOverall bit rate               : 740 Kbps\n\nVideo\nID                             : 0\nFormat                         : AVC\nFormat/Info                    : Advanced Video Codec\nFormat profile                 : &lt;a class=&quot;__cf_email__&quot; href=&quot;/cdn-cgi/l/email-protection&quot; data-cfemail=&quot;a9e1c0cec1e9e59a8798&quot;&gt;[email&amp;#160;protected]&lt;/a&gt;&lt;script cf-hash='f9e31' type=&quot;text/javascript&quot;&gt;\n/* &lt;![CDATA[ */!function(){try{var t=&quot;currentScript&quot;in document?document.currentScript:function(){for(var t=document.getElementsByTagName(&quot;script&quot;),e=t.length;e--;)if(t[e].getAttribute(&quot;cf-hash&quot;))return t[e]}();if(t&amp;&amp;t.previousSibling){var e,r,n,i,c=t.previousSibling,a=c.getAttribute(&quot;data-cfemail&quot;);if(a){for(e=&quot;&quot;,r=parseInt(a.substr(0,2),16),n=2;a.length-n;n+=2)i=parseInt(a.substr(n,2),16)^r,e+=String.fromCharCode(i);e=document.createTextNode(e),c.parentNode.replaceChild(e,c)}}}catch(u){}}();/* ]]&gt; */&lt;/script&gt;\nFormat settings, CABAC         : Yes\nFormat settings, ReFrames      : 2 frames\nCodec ID                       : H264\nDuration                       : 1h 54mn\nBit rate                       : 600 Kbps\nWidth                          : 640 pixels\nHeight                         : 272 pixels\nDisplay aspect ratio           : 2.35:1\nFrame rate                     : 23.976 fps\nColor space                    : YUV\nChroma subsampling             : 4:2:0\nBit depth                      : 8 bits\nScan type                      : Progressive\nBits/(Pixel*Frame)             : 0.144\nStream size                    : 490 MiB (81%)\nWriting library                : x264 core 106\n\nAudio\nID                             : 1\nFormat                         : MPEG Audio\nFormat version                 : Version 1\nFormat profile                 : Layer 3\nCodec ID                       : 55\nCodec ID/Hint                  : MP3\nDuration                       : 1h 54mn\nSource duration                : 1h 54mn\nBit rate mode                  : Constant\nBit rate                       : 128 Kbps\nChannel(s)                     : 2 channels\nSampling rate                  : 48.0 KHz\nCompression mode               : Lossy\nStream size                    : 105 MiB (17%)\nAlignment                      : Aligned on interleaves\nInterleave, duration           : 24 ms (0.58 video frame)\nWriting library                : LAMEUU6ÃŸm\nSource                            : ICTV\n\nRipper : Manojvb\n\nExtreme 24x7 Seeding, Initial seeding will be very slow\n\nNote : My first Screener Release attempt, quality may not as expected.\n\nEnjoy TMB Release!","torrent":{"xt":"urn:btih:d3097ed91fe2fdba73b637619e1c1f908653ac05","amp;dn":"Deewana+Main+Deewana+2013+DVDScrRip+x264+MP3+Hindi+%5BTMB%5D","amp;tr":["udp%3A%2F%2Ftracker.openbittorrent.com%3A80","udp%3A%2F%2Fopen.demonii.com%3A1337","udp%3A%2F%2Ftracker.coppersurfer.tk%3A6969","udp%3A%2F%2Fexodus.desync.com%3A6969"],"infoHash":"d3097ed91fe2fdba73b637619e1c1f908653ac05","infoHashBuffer":{"type":"Buffer","data":[211,9,126,217,31,226,253,186,115,182,55,97,158,28,31,144,134,83,172,5]},"announce":[],"urlList":[]}}